<?xml version="1.0" standalone="no"?>
<!DOCTYPE svg PUBLIC "-//W3C//DTD SVG 20010904//EN"
 "http://www.w3.org/TR/2001/REC-SVG-20010904/DTD/svg10.dtd">
<svg version="1.0" xmlns="http://www.w3.org/2000/svg"
 width="260.000000pt" height="260.000000pt" viewBox="0 0 260.000000 260.000000"
 preserveAspectRatio="xMidYMid meet">
<metadata>
Created by potrace 1.14, written by Peter Selinger 2001-2017
</metadata>
<g transform="translate(0.000000,260.000000) scale(0.100000,-0.100000)"
fill="#000000" stroke="none">
<path d="M320 1395 l0 -415 105 0 105 0 0 114 0 113 42 7 c47 8 49 5 75 -66
10 -27 21 -48 25 -48 5 0 8 -5 8 -10 0 -6 10 -33 23 -60 l22 -50 123 0 c73 0
122 4 122 10 0 5 -13 32 -30 58 -16 27 -30 52 -30 55 0 4 -22 46 -50 94 -27
48 -50 93 -50 100 0 7 20 34 45 59 24 25 49 62 56 82 6 21 15 42 19 47 5 6 11
36 15 68 l7 58 -108 -3 -109 -3 -11 -52 c-14 -65 -44 -107 -86 -123 -18 -6
-41 -16 -50 -21 -10 -5 -27 -9 -38 -9 -19 0 -20 6 -20 205 l0 205 -105 0 -105
0 0 -415z"/>
<path d="M1355 1603 c-16 -9 -40 -24 -52 -35 -20 -19 -50 -17 -38 2 3 4 2 15
-1 24 -5 13 -25 16 -115 16 l-109 0 0 -315 0 -315 109 0 c90 0 110 3 115 16 3
9 6 85 6 170 0 140 2 157 21 187 35 53 67 71 136 75 l63 4 0 94 0 94 -52 -1
c-29 -1 -66 -8 -83 -16z"/>
<path d="M1545 1580 c8 -16 15 -34 15 -40 0 -13 22 -66 46 -113 8 -16 14 -33
14 -38 0 -9 15 -46 56 -136 8 -17 14 -34 14 -38 0 -4 6 -21 14 -38 21 -46 86
-206 86 -212 0 -3 -20 -14 -44 -26 -37 -17 -59 -20 -123 -16 -43 2 -88 7 -100
12 -23 7 -23 7 -23 -89 l0 -96 30 -7 c17 -3 33 -10 36 -14 9 -15 166 -10 213
7 71 24 138 76 176 133 19 29 35 57 35 62 0 5 5 9 10 9 6 0 10 6 10 13 1 6 9
30 20 52 11 22 19 46 20 53 0 6 4 12 9 12 5 0 11 13 14 30 4 16 16 50 27 74
11 25 20 50 20 55 0 6 5 11 10 11 6 0 10 7 10 16 0 9 7 28 14 42 19 34 36 76
72 172 15 41 34 84 41 95 27 41 19 45 -102 45 l-115 0 -20 -44 c-11 -25 -20
-52 -20 -60 0 -8 -4 -18 -10 -21 -5 -3 -10 -13 -10 -22 0 -8 -6 -29 -14 -46
-8 -18 -24 -65 -36 -104 -12 -40 -28 -73 -35 -73 -7 0 -16 19 -19 45 -4 24
-11 47 -16 50 -4 3 -11 24 -15 48 -4 23 -11 47 -15 52 -4 6 -13 35 -19 65 -7
30 -17 67 -24 83 l-12 27 -128 0 -128 0 16 -30z"/>
</g>
</svg>
